<?xml version="1.0" encoding="utf-8"?><svg version="1.1" xmlns="http://www.w3.org/2000/svg" xmlns:xlink="http://www.w3.org/1999/xlink" x="0px" y="0px" viewBox="0 0 1024 214" fill="#6772E5"><path d="M51.9,118.7c0.7,5,2.1,8.7,4.2,11.2c3.8,4.5,10.3,6.8,19.5,6.8c5.5,0,10-0.6,13.4-1.8c6.5-2.3,9.8-6.5,9.8-12.7 c0-3.6-1.6-6.4-4.8-8.4c-3.2-1.9-8.3-3.6-15.2-5.1l-11.8-2.6c-11.6-2.6-19.6-5.4-24-8.4c-7.4-5-11.1-12.9-11.1-23.7 c0-9.8,3.6-17.9,10.8-24.4c7.2-6.5,17.8-9.7,31.8-9.7c11.7,0,21.6,3.1,29.9,9.2c8.2,6.1,12.6,15,13,26.6h-22 c-0.4-6.6-3.3-11.3-8.8-14c-3.7-1.8-8.2-2.7-13.6-2.7c-6,0-10.9,1.2-14.5,3.6S53,68.2,53,72.4c0,3.9,1.8,6.8,5.3,8.8 c2.3,1.3,7.1,2.8,14.5,4.5L92,90.2c8.4,2,14.7,4.6,18.9,7.9c6.5,5.1,9.8,12.6,9.8,22.3c0,10-3.9,18.3-11.6,24.9 c-7.7,6.6-18.6,9.9-32.7,9.9c-14.4,0-25.7-3.3-34-9.8c-8.3-6.5-12.4-15.4-12.4-26.8H51.9z"/><path d="M156.8,62h-21.4V42.4h21.4V62z M135.4,71.6h21.4v80.9h-21.4V71.6z"/><path d="M278.2,71.9c3.5,1.4,6.6,3.8,9.4,7.3c2.3,2.8,3.8,6.3,4.6,10.4c0.5,2.7,0.7,6.7,0.7,11.9l-0.1,51h-21.7V101 c0-3.1-0.5-5.6-1.5-7.6c-1.9-3.8-5.3-5.6-10.4-5.6c-5.8,0-9.9,2.4-12.1,7.3c-1.1,2.6-1.7,5.7-1.7,9.3v48.2h-21.3v-48.2 c0-4.8-0.5-8.3-1.5-10.5c-1.8-3.9-5.3-5.9-10.5-5.9c-6,0-10.1,2-12.2,5.9c-1.1,2.2-1.7,5.5-1.7,9.9v48.7h-21.4V71.8h20.6v11.8 c2.6-4.2,5.1-7.2,7.4-9c4.1-3.2,9.4-4.8,16-4.8c6.2,0,11.2,1.4,15,4.1c3.1,2.5,5.4,5.8,7,9.7c2.8-4.8,6.2-8.2,10.3-10.5 c4.4-2.2,9.2-3.3,14.5-3.3C271.3,69.8,274.8,70.5,278.2,71.9z"/><path d="M380.5,80.3c6.6,7,9.9,17.2,9.9,30.7c0,14.3-3.2,25.1-9.7,32.6c-6.4,7.5-14.8,11.2-24.9,11.2 c-6.5,0-11.9-1.6-16.1-4.8c-2.3-1.8-4.6-4.4-6.9-7.8v42.2h-20.9V71.6h20.3v11.9c2.3-3.5,4.7-6.3,7.3-8.3c4.7-3.6,10.4-5.4,16.9-5.4 C365.8,69.8,373.9,73.3,380.5,80.3z M364.2,95.5c-2.9-4.8-7.5-7.2-14-7.2c-7.7,0-13.1,3.6-16,10.9c-1.5,3.9-2.3,8.8-2.3,14.7 c0,9.4,2.5,16,7.6,19.8c3,2.2,6.5,3.3,10.6,3.3c5.9,0,10.5-2.3,13.6-6.8c3.1-4.6,4.7-10.6,4.7-18.2 C368.6,105.8,367.1,100.3,364.2,95.5z"/><path d="M426.9,152.5h-21.2V43.1h21.2V152.5z"/><path d="M500.2,73.2c5.6,2.5,10.3,6.5,14,12c3.3,4.8,5.5,10.4,6.4,16.7c0.6,3.7,0.8,9.1,0.7,16.1h-58.9 c0.3,8.1,3.1,13.8,8.5,17.1c3.2,2,7.1,3,11.7,3c4.8,0,8.7-1.2,11.7-3.7c1.6-1.3,3.1-3.2,4.4-5.6h21.6c-0.6,4.8-3.2,9.7-7.8,14.6 c-7.2,7.9-17.4,11.8-30.4,11.8c-10.8,0-20.3-3.3-28.5-10c-8.2-6.6-12.3-17.4-12.3-32.4c0-14,3.7-24.8,11.1-32.2 c7.4-7.5,17.1-11.2,28.9-11.2C488.3,69.4,494.6,70.7,500.2,73.2z M468.6,91.5c-3,3.1-4.9,7.3-5.6,12.5h36.4 c-0.4-5.6-2.3-9.9-5.6-12.8c-3.4-2.9-7.6-4.4-12.5-4.4C475.8,86.9,471.6,88.4,468.6,91.5z"/><path d="M599.3,90.2c0-4.2,4.2-6.4,9.9-6.4c8.5,0,19.8,2.8,28.3,7.8V64.8c-9.2-3.5-19.1-5.7-28.3-5.7 c-22.6,0-38.2,12-38.2,32.5c0,31.1,42.4,25.5,42.4,39.6c0,4.9-4.2,7.1-10.6,7.1c-9.2,0-21.2-4.2-30.4-9.2V156 c10.6,4.2,20.5,6.4,30.4,6.4c23.3,0,38.9-11.3,38.9-31.8C642.4,96.6,599.3,103,599.3,90.2z M775.3,160.2h28.3v-99h-28.3 C775.3,61.3,775.3,160.2,775.3,160.2z M679.2,37.9l-27.6,5.7v89.1c0,17,12.7,29,29,29c9.2,0,16.3-1.4,19.8-3.5v-22.6 c-3.5,1.4-21.2,6.4-21.2-9.9V85.3h21.2v-24h-21.2V37.9z M738.5,69.7l-0.7-8.5h-25.5v99h28.3V93.1c7.1-8.5,19.1-7.1,22.6-5.7V61.3 C759.8,59.8,745.6,57.7,738.5,69.7z M775.3,53.5l28.3-5.7V24.5l-28.3,5.7V53.5z M995.9,110.7c0-29-14.1-51.6-41-51.6 c-26.9,0-43.1,22.6-43.1,51.6c0,33.9,19.1,50.9,46.7,50.9c13.4,0,23.3-2.8,31.1-7.8V132c-7.8,4.2-16.3,6.4-27.6,6.4 s-20.5-4.2-21.9-17.7h55.1C995.9,119.2,995.9,113.6,995.9,110.7z M940,100.1c0-12.7,7.8-17.7,14.8-17.7c7.1,0,14.1,4.9,14.1,17.7 H940z M865.8,59.1c-11.3,0-17.7,4.9-21.9,9.2l-0.7-7.1h-25.5V192l28.3-4.9v-31.8c4.2,2.8,9.9,7.1,19.8,7.1 c20.5,0,38.9-16.3,38.9-52.3C904,77.5,885.6,59.1,865.8,59.1z M858.7,136.9c-6.4,0-10.6-2.1-13.4-5.7V89.5c2.8-3.5,7.1-5.7,13.4-5.7 c10.6,0,17.7,11.3,17.7,26.2C876.4,125.6,869.3,136.9,858.7,136.9z"/></svg>