<?xml version="1.0" encoding="utf-8"?>
<svg version="1.1" xmlns="http://www.w3.org/2000/svg" xmlns:xlink="http://www.w3.org/1999/xlink" x="0px" y="0px" viewBox="0 0 512 512">
<style type="text/css">
	.st1{fill:#FFFFFF;}
</style>
<rect fill="#6772E5" width="512" height="512"/>
<g>
	<path class="st1" d="M52.3,182.9c0.7,4.6,1.9,8,3.8,10.3c3.5,4.1,9.5,6.2,17.9,6.2c5.1,0,9.2-0.5,12.4-1.6c6-2.1,9-6,9-11.7
		c0-3.3-1.5-5.9-4.4-7.7c-2.9-1.8-7.6-3.3-14-4.7l-10.9-2.4c-10.7-2.4-18.1-4.9-22.1-7.7c-6.8-4.6-10.2-11.9-10.2-21.8
		c0-9,3.3-16.5,10-22.5c6.6-6,16.4-9,29.3-9c10.7,0,19.9,2.8,27.5,8.4c7.6,5.6,11.6,13.8,11.9,24.5H92.3c-0.4-6.1-3.1-10.4-8.1-12.9
		c-3.4-1.7-7.5-2.5-12.5-2.5c-5.6,0-10,1.1-13.3,3.3c-3.3,2.2-5,5.2-5,9.2c0,3.6,1.6,6.3,4.9,8.1c2.1,1.2,6.6,2.6,13.4,4.2l17.7,4.2
		c7.8,1.8,13.6,4.3,17.4,7.3c6,4.7,9,11.6,9,20.6c0,9.2-3.6,16.9-10.7,22.9s-17.2,9.1-30.2,9.1c-13.3,0-23.7-3-31.3-9
		c-7.6-6-11.4-14.2-11.4-24.7H52.3z"/>
	<path class="st1" d="M149,130.6h-19.8v-18H149V130.6z M129.2,139.5H149V214h-19.8V139.5z"/>
	<path class="st1" d="M260.8,139.8c3.2,1.3,6.1,3.5,8.7,6.7c2.1,2.6,3.5,5.8,4.2,9.6c0.5,2.5,0.7,6.2,0.7,11l-0.1,47h-20v-47.4
		c0-2.8-0.5-5.1-1.4-7c-1.7-3.5-4.9-5.2-9.6-5.2c-5.4,0-9.1,2.2-11.1,6.7c-1,2.4-1.6,5.2-1.6,8.5V214h-19.6v-44.4
		c0-4.4-0.5-7.6-1.4-9.6c-1.6-3.6-4.9-5.4-9.6-5.4c-5.6,0-9.3,1.8-11.2,5.4c-1,2.1-1.6,5.1-1.6,9.2V214h-19.8v-74.4h18.9v10.9
		c2.4-3.9,4.7-6.6,6.8-8.3c3.8-2.9,8.7-4.4,14.7-4.4c5.7,0,10.3,1.3,13.8,3.8c2.8,2.3,5,5.3,6.4,9c2.6-4.4,5.7-7.6,9.5-9.6
		c4-2.1,8.5-3.1,13.4-3.1C254.4,137.8,257.6,138.5,260.8,139.8z"/>
	<path class="st1" d="M355,147.5c6.1,6.4,9.1,15.9,9.1,28.3c0,13.1-3,23.1-8.9,30c-5.9,6.9-13.6,10.3-22.9,10.3
		c-6,0-10.9-1.5-14.9-4.4c-2.2-1.6-4.3-4-6.3-7.2v38.8h-19.3V139.5h18.7v11c2.1-3.2,4.4-5.8,6.7-7.7c4.4-3.3,9.5-5,15.5-5
		C341.5,137.8,348.9,141.1,355,147.5z M340,161.5c-2.6-4.4-6.9-6.6-12.9-6.6c-7.1,0-12,3.3-14.7,10c-1.4,3.6-2.1,8.1-2.1,13.5
		c0,8.7,2.3,14.7,7,18.3c2.8,2.1,6,3.1,9.8,3.1c5.5,0,9.7-2.1,12.5-6.3c2.9-4.2,4.3-9.8,4.3-16.7C344,171,342.7,165.9,340,161.5z"/>
	<path class="st1" d="M397.7,214h-19.5V113.2h19.5V214z"/>
	<path class="st1" d="M465.3,141c5.2,2.3,9.5,6,12.9,11c3.1,4.4,5,9.6,5.9,15.4c0.5,3.4,0.7,8.4,0.6,14.8h-54.3
		c0.3,7.5,2.9,12.7,7.8,15.7c3,1.9,6.6,2.8,10.7,2.8c4.4,0,8-1.1,10.8-3.4c1.5-1.2,2.9-2.9,4-5.1h19.9c-0.5,4.4-2.9,8.9-7.2,13.5
		c-6.7,7.2-16,10.9-28,10.9c-9.9,0-18.7-3.1-26.2-9.2s-11.4-16.1-11.4-29.8c0-12.9,3.4-22.8,10.3-29.7c6.8-6.9,15.7-10.3,26.6-10.3
		C454.3,137.5,460.1,138.7,465.3,141z M436.2,157.8c-2.8,2.8-4.5,6.7-5.2,11.5h33.6c-0.4-5.2-2.1-9.1-5.2-11.8c-3.1-2.7-7-4-11.6-4
		C442.8,153.6,438.9,155,436.2,157.8z"/>
</g>
<path class="st1" d="M74.4,328.7c0-4.3,4.3-6.4,9.9-6.4c8.5,0,19.8,2.8,28.4,7.8v-26.9c-9.2-3.5-19.1-5.7-28.4-5.7
	c-22.7,0-38.3,12-38.3,32.6c0,31.2,42.5,25.5,42.5,39.7c0,5-4.3,7.1-10.6,7.1c-9.2,0-21.3-4.3-30.5-9.2v26.9
	C58,398.9,68,401,77.9,401c23.4,0,39-11.3,39-31.9C117.6,335.1,74.4,341.5,74.4,328.7z M250.8,398.9h28.4v-99.2h-28.4
	C250.8,299.7,250.8,398.9,250.8,398.9z M154.4,276.3l-27.6,5.7v89.3c0,17,12.8,29.1,29.1,29.1c9.2,0,16.3-1.4,19.8-3.5v-22.7
	c-3.5,1.4-21.3,6.4-21.3-9.9v-40.4h21.3v-24.1h-21.3V276.3z M214,308.2l-0.7-8.5h-25.5v99.2h28.4v-67.3c7.1-8.5,19.1-7.1,22.7-5.7
	v-26.2C235.3,298.2,221.1,296.1,214,308.2z M250.8,291.9l28.4-5.7v-23.4l-28.4,5.7C250.8,268.5,250.8,291.9,250.8,291.9z M472,349.3
	c0-29.1-14.2-51.7-41.1-51.7c-26.9,0-43.2,22.7-43.2,51.7c0,34,19.1,51,46.8,51c13.5,0,23.4-2.8,31.2-7.8v-22
	c-7.8,4.3-16.3,6.4-27.6,6.4c-11.3,0-20.6-4.3-22-17.7h55.3C472,357.8,472,352.1,472,349.3z M416,338.6c0-12.8,7.8-17.7,14.9-17.7
	c7.1,0,14.2,5,14.2,17.7H416z M341.6,297.5c-11.3,0-17.7,5-22,9.2l-0.7-7.1h-25.5v131.1l28.4-5v-31.9c4.3,2.8,9.9,7.1,19.8,7.1
	c20.6,0,39-16.3,39-52.5C379.9,316,361.4,297.5,341.6,297.5z M334.5,375.5c-6.4,0-10.6-2.1-13.5-5.7V328c2.8-3.5,7.1-5.7,13.5-5.7
	c10.6,0,17.7,11.3,17.7,26.2C352.2,364.2,345.1,375.5,334.5,375.5z"/>
</svg>
